<?xml version="1.0" encoding="UTF-8" standalone="no"?>
<!-- Created with Inkscape (http://www.inkscape.org/) -->

<svg
   width="18"
   height="18"
   viewBox="0 0 4.7624999 4.7624999"
   version="1.1"
   id="svg239"
   inkscape:export-filename="eye-on.png"
   inkscape:export-xdpi="96"
   inkscape:export-ydpi="96"
   inkscape:version="1.2 (dc2aedaf03, 2022-05-15)"
   sodipodi:docname="EyeIcon.svg"
   xmlns:inkscape="http://www.inkscape.org/namespaces/inkscape"
   xmlns:sodipodi="http://sodipodi.sourceforge.net/DTD/sodipodi-0.dtd"
   xmlns="http://www.w3.org/2000/svg"
   xmlns:svg="http://www.w3.org/2000/svg">
  <sodipodi:namedview
     id="namedview241"
     pagecolor="#ffffff"
     bordercolor="#666666"
     borderopacity="1.0"
     inkscape:showpageshadow="2"
     inkscape:pageopacity="0.0"
     inkscape:pagecheckerboard="0"
     inkscape:deskcolor="#d1d1d1"
     inkscape:document-units="mm"
     showgrid="false"
     inkscape:zoom="19.02887"
     inkscape:cx="-3.3633105"
     inkscape:cy="10.904483"
     inkscape:window-width="1920"
     inkscape:window-height="991"
     inkscape:window-x="-9"
     inkscape:window-y="-9"
     inkscape:window-maximized="1"
     inkscape:current-layer="g1078" />
  <defs
     id="defs236" />
  <g
     inkscape:label="Livello 1"
     inkscape:groupmode="layer"
     id="layer1">
    <g
       id="g1078"
       style="display:none"
       inkscape:label="eye-off">
      <path
         id="path7730"
         style="display:inline;fill:#000000;fill-opacity:1;stroke:#000000;stroke-width:0.0534421;stroke-dasharray:none;stroke-opacity:1"
         d="M 2.3810874,0.82731954 A 2.413501,1.9937342 0 0 0 0.02770699,2.38125 2.413501,1.9937342 0 0 0 0.54249312,3.2315575 L 1.4495816,2.3244685 C 1.4780428,1.8560153 1.8560064,1.4780606 2.3244507,1.4495636 L 2.8993771,0.87463701 A 2.413501,1.9937342 0 0 0 2.3810874,0.82731954 Z m 1.8391,0.70358666 -0.9073415,0.9072693 C 3.2843251,2.9065455 2.906534,3.2843325 2.4381573,3.3128281 L 1.8631226,3.8878266 A 2.413501,1.9937342 0 0 0 2.3810874,3.9351805 2.413501,1.9937342 0 0 0 4.7347929,2.3802743 2.413501,1.9937342 0 0 0 4.2201874,1.5309062 Z" />
      <path
         style="display:inline;fill:#ffffff;fill-opacity:1;stroke:none;stroke-width:0.0615681;stroke-dasharray:none;stroke-opacity:1"
         d="m 2.3813182,1.3059345 c 0.5915194,0 1.0752676,0.4837475 1.0752676,1.0752657 0,0.5915182 -0.4837482,1.0754737 -1.0752676,1.0754737 -0.5915193,0 -1.0754758,-0.4839555 -1.0754758,-1.0754737 0,-0.5915182 0.4839565,-1.0752657 1.0754758,-1.0752657 z"
         id="path1080" />
      <path
         style="display:inline;fill:none;stroke:#000000;stroke-width:0.8;stroke-linecap:round;stroke-linejoin:miter;stroke-dasharray:none;stroke-opacity:1"
         d="M 0.5385849,4.2239145 4.223915,0.53858554"
         id="path8523" />
    </g>
    <g
       id="g1027"
       inkscape:label="eye-on"
       style="display:inline">
      <path
         style="display:inline;fill:#000000;fill-opacity:1;stroke:#000000;stroke-width:0.0534421;stroke-dasharray:none;stroke-opacity:1"
         d="M 2.3810878,0.82732092 A 2.4135038,1.9937327 0 0 0 0.02770473,2.38125 2.4135038,1.9937327 0 0 0 2.3810878,3.9351791 2.4135038,1.9937327 0 0 0 4.7347959,2.3802748 2.4135038,1.9937327 0 0 0 2.3810878,0.82732092 Z"
         id="ellipse5513" />
      <path
         style="display:inline;fill:#ffffff;fill-opacity:1;stroke:#000000;stroke-width:0.0615681;stroke-dasharray:none;stroke-opacity:1"
         d="m 2.3813182,1.3059345 c 0.5915194,0 1.0752676,0.4837475 1.0752676,1.0752657 0,0.5915182 -0.4837482,1.0754737 -1.0752676,1.0754737 -0.5915193,0 -1.0754758,-0.4839555 -1.0754758,-1.0754737 0,-0.5915182 0.4839565,-1.0752657 1.0754758,-1.0752657 z"
         id="path1020" />
      <path
         style="display:inline;fill:#000000;fill-opacity:1;stroke:#000000;stroke-width:0.0461413;stroke-dasharray:none;stroke-opacity:1"
         d="m 2.3812946,1.8771054 c -0.2802322,0 -0.5042439,0.2238867 -0.5042439,0.5041184 0,0.2802316 0.2240117,0.5042429 0.5042439,0.5042429 0.2802322,0 0.5041192,-0.2240113 0.5041192,-0.5042429 0,-0.2802317 -0.223887,-0.5041184 -0.5041192,-0.5041184 z"
         id="path1022" />
    </g>
  </g>
</svg>
