<?xml version="1.0" encoding="UTF-8" standalone="no"?>
<!-- Created with Inkscape (http://www.inkscape.org/) -->

<svg
   width="256"
   height="256"
   viewBox="0 0 67.733332 67.733333"
   version="1.1"
   id="svg5"
   inkscape:version="1.2 (dc2aedaf03, 2022-05-15)"
   sodipodi:docname="TempusLineaIcon.svg"
   inkscape:export-filename="TempusLineaIcon_v2_100.png"
   inkscape:export-xdpi="37.5"
   inkscape:export-ydpi="37.5"
   xmlns:inkscape="http://www.inkscape.org/namespaces/inkscape"
   xmlns:sodipodi="http://sodipodi.sourceforge.net/DTD/sodipodi-0.dtd"
   xmlns="http://www.w3.org/2000/svg"
   xmlns:svg="http://www.w3.org/2000/svg">
  <sodipodi:namedview
     id="namedview7"
     pagecolor="#ffffff"
     bordercolor="#666666"
     borderopacity="1.0"
     inkscape:showpageshadow="2"
     inkscape:pageopacity="0.0"
     inkscape:pagecheckerboard="0"
     inkscape:deskcolor="#d1d1d1"
     inkscape:document-units="mm"
     showgrid="false"
     inkscape:zoom="2.8284272"
     inkscape:cx="171.11984"
     inkscape:cy="145.13366"
     inkscape:window-width="1920"
     inkscape:window-height="991"
     inkscape:window-x="-9"
     inkscape:window-y="-9"
     inkscape:window-maximized="1"
     inkscape:current-layer="layer1" />
  <defs
     id="defs2" />
  <g
     inkscape:label="Livello 1"
     inkscape:groupmode="layer"
     id="layer1">
    <rect
       style="fill:#4d390f;fill-opacity:1;fill-rule:evenodd;stroke:#000000;stroke-width:0.799999;stroke-linecap:round"
       id="rect510"
       width="18.051247"
       height="7.8402538"
       x="0.3999995"
       y="59.49308" />
    <rect
       style="fill:#4d390f;fill-opacity:1;fill-rule:evenodd;stroke:#000000;stroke-width:0.799999;stroke-linecap:round"
       id="rect510-3"
       width="18.051247"
       height="7.8402538"
       x="0.40000081"
       y="0.3999995" />
    <rect
       style="fill:#4d390f;fill-opacity:1;fill-rule:evenodd;stroke:#000000;stroke-width:0.799999;stroke-linecap:round"
       id="rect512"
       width="7.3582435"
       height="7.558753"
       x="5.746501"
       y="51.934326" />
    <rect
       style="fill:#4d390f;fill-opacity:1;fill-rule:evenodd;stroke:#000000;stroke-width:0.799999;stroke-linecap:round"
       id="rect512-2"
       width="7.3582435"
       height="7.558753"
       x="5.7465014"
       y="8.2402554" />
    <rect
       style="fill:#4d390f;fill-opacity:1;fill-rule:evenodd;stroke:#000000;stroke-width:0.799999;stroke-linecap:round"
       id="rect510-4"
       width="18.051247"
       height="7.8402538"
       x="49.282085"
       y="59.49308" />
    <rect
       style="fill:#4d390f;fill-opacity:1;fill-rule:evenodd;stroke:#000000;stroke-width:0.799999;stroke-linecap:round"
       id="rect510-3-4"
       width="18.051247"
       height="7.8402538"
       x="49.282085"
       y="0.40000713" />
    <rect
       style="fill:#4d390f;fill-opacity:1;fill-rule:evenodd;stroke:#000000;stroke-width:0.799999;stroke-linecap:round"
       id="rect512-7"
       width="7.3582435"
       height="7.558753"
       x="54.628586"
       y="51.934326" />
    <rect
       style="fill:#4d390f;fill-opacity:1;fill-rule:evenodd;stroke:#000000;stroke-width:0.799999;stroke-linecap:round"
       id="rect512-2-7"
       width="7.3582435"
       height="7.558753"
       x="54.62859"
       y="8.240263" />
    <rect
       style="fill:#e5b75c;fill-opacity:1;fill-rule:evenodd;stroke:#000000;stroke-width:0.799999;stroke-linecap:round"
       id="rect633"
       width="36.177338"
       height="36.135319"
       x="18.451246"
       y="15.799008" />
    <path
       style="fill:none;stroke:#000000;stroke-width:2;stroke-linecap:butt;stroke-linejoin:miter;stroke-opacity:1;stroke-dasharray:none;fill-opacity:1"
       d="M 13.104743,33.866666 H 54.628586"
       id="path2031" />
    <circle
       style="fill:#000000;fill-opacity:1;fill-rule:evenodd;stroke:#000000;stroke-width:2;stroke-linecap:round;stroke-dasharray:none;stroke-opacity:1"
       id="path2811"
       cx="18.785414"
       cy="33.866665"
       r="1.5874993" />
    <circle
       style="fill:#000000;fill-opacity:1;fill-rule:evenodd;stroke:#000000;stroke-width:2;stroke-linecap:round;stroke-dasharray:none;stroke-opacity:1"
       id="path2811-7"
       cx="39.224476"
       cy="33.866665"
       r="1.5874993" />
    <path
       id="path5814"
       style="fill:#4d390f;fill-opacity:1;fill-rule:evenodd;stroke:#000000;stroke-width:1.03435;stroke-linecap:round;stroke-dasharray:none;stroke-opacity:1"
       d="m 12.932427,18.038474 c -0.994975,0 -1.795987,0.801011 -1.795987,1.795986 v 4.447203 c 0,0.994975 0.801012,1.795985 1.795987,1.795985 h 3.6207 c 0.360281,0.5707 0.788386,1.176206 0.861913,1.30356 0.137021,0.237326 1.096335,2.373266 1.370375,2.373266 0.27404,0 1.233354,-2.13594 1.370375,-2.373266 0.07353,-0.127354 0.501632,-0.73286 0.861913,-1.30356 h 3.6207 c 0.994975,0 1.795987,-0.80101 1.795987,-1.795985 V 19.83446 c 0,-0.994975 -0.801012,-1.795986 -1.795987,-1.795986 z" />
    <path
       id="path5814-7"
       style="fill:#4d390f;fill-opacity:1;fill-rule:evenodd;stroke:#000000;stroke-width:1.03435;stroke-linecap:round;stroke-dasharray:none;stroke-opacity:1"
       d="m 33.371489,18.038474 c -0.994975,0 -1.795987,0.801011 -1.795987,1.795986 v 4.447203 c 0,0.994975 0.801012,1.795985 1.795987,1.795985 h 3.6207 c 0.360281,0.5707 0.788386,1.176206 0.861913,1.30356 0.137021,0.237326 1.096335,2.373266 1.370375,2.373266 0.27404,0 1.233354,-2.13594 1.370375,-2.373266 0.07353,-0.127354 0.501632,-0.73286 0.861913,-1.30356 h 3.6207 c 0.994975,0 1.795987,-0.80101 1.795987,-1.795985 V 19.83446 c 0,-0.994975 -0.801012,-1.795986 -1.795987,-1.795986 z" />
    <rect
       style="fill:#4d390f;fill-opacity:1;fill-rule:evenodd;stroke:#000000;stroke-width:0.799999;stroke-linecap:round;stroke-dasharray:none;stroke-opacity:1"
       id="rect5890-5"
       width="29.838207"
       height="7.3432307"
       x="15.819963"
       y="40.283188"
       ry="0"
       rx="0" />
    <rect
       style="fill:#e5b75c;fill-opacity:1;fill-rule:evenodd;stroke:#000000;stroke-width:0.799999;stroke-linecap:round"
       id="rect512-22"
       width="18.051247"
       height="36.135319"
       x="0.39999998"
       y="15.799008" />
    <rect
       style="fill:#e5b75c;fill-opacity:1;fill-rule:evenodd;stroke:#000000;stroke-width:0.799999;stroke-linecap:round"
       id="rect512-22-7"
       width="18.051247"
       height="36.135319"
       x="49.282085"
       y="15.799006" />
  </g>
</svg>
